Coordinates
version=1
nRows=4
nColumns=63
inDegrees=yes

Units are S.I. units (second, meters, Newtons, ...)
If the header above contains a line with 'inDegrees', this indicates whether rotational values are in degrees (yes) or radians (no).

endheader
time	pelvis_tilt	pelvis_list	pelvis_rotation	pelvis_tx	pelvis_ty	pelvis_tz	hip_flexion_r	hip_adduction_r	hip_rotation_r	knee_angle_r	knee_angle_r_beta	ankle_angle_r	subtalar_angle_r	mtp_angle_r	hip_flexion_l	hip_adduction_l	hip_rotation_l	knee_angle_l	knee_angle_l_beta	ankle_angle_l	subtalar_angle_l	mtp_angle_l	L5_S1_Flex_Ext	L5_S1_Lat_Bending	L5_S1_axial_rotation	L4_L5_Flex_Ext	L4_L5_Lat_Bending	L4_L5_axial_rotation	L3_L4_Flex_Ext	L3_L4_Lat_Bending	L3_L4_axial_rotation	L2_L3_Flex_Ext	L2_L3_Lat_Bending	L2_L3_axial_rotation	L1_L2_Flex_Ext	L1_L2_Lat_Bending	L1_L2_axial_rotation	L1_T12_Flex_Ext	L1_T12_Lat_Bending	L1_T12_axial_rotation	Abs_r3	Abs_r2	Abs_r1	Abs_t1	Abs_t2	neck_flexion	neck_bending	neck_rotation	arm_flex_r	arm_add_r	arm_rot_r	elbow_flex_r	pro_sup_r	wrist_flex_r	wrist_dev_r	arm_flex_l	arm_add_l	arm_rot_l	elbow_flex_l	pro_sup_l	wrist_flex_l	wrist_dev_l
      0.43333333	    -23.30321305	      5.69988449	    -98.84961460	     -0.05421606	      0.97200310	     -1.09992664	     21.68471287	     -4.49347445	    -26.39794212	     51.14364247	      0.89262495	      7.46109512	     14.63866853	      0.00000000	     31.59797714	    -19.60034835	     13.73042552	     52.48167479	      0.91597802	     15.55469661	    -19.60901211	      0.00000000	      0.00726459	     -0.72577802	      0.70848434	      0.01349107	     -0.96528476	      0.75276461	      0.01193499	     -1.76465667	      0.75276461	      0.00830270	     -1.76465667	      0.61992380	      0.00674590	     -1.48000653	      0.57564353	      0.00415099	     -1.12423015	      0.53136326	      0.05189022	     -8.21014608	      3.94037735	      0.00000000	      0.00000000	     -2.72019057	     -0.02139645	     -2.26893496	    -21.49145096	    -40.97077228	    -63.77632278	     92.94641061	     89.99559364	      0.00000000	      0.00000000	     -5.40076257	    -43.02503108	     17.43907978	     30.01570129	     89.99559364	      0.00000000	      0.00000000
      0.45000000	    -23.46135162	      5.64979876	   -100.35806244	     -0.05768486	      0.97174573	     -1.09161338	     22.51364829	     -5.56927853	    -24.32129325	     48.75648387	      0.85096118	      5.54943738	     15.44439465	      0.00000000	     30.65833845	    -20.56922775	     12.48413642	     53.10216549	      0.92680763	     15.70586986	    -19.57696664	      0.00000000	      0.00402763	     -0.82808557	      1.26879265	      0.00747971	     -1.10135381	      1.34809219	      0.00661699	     -2.01340727	      1.34809219	      0.00460318	     -2.01340727	      1.11019357	      0.00374006	     -1.68863210	      1.03089403	      0.00230139	     -1.28270456	      0.95159449	      0.02876896	     -9.36746964	      7.05664408	      0.00000000	      0.00000000	     -2.41389054	     -0.00968214	     -3.77477936	    -25.47789174	    -40.16682517	    -68.02385773	     93.03414715	     89.99559364	      0.00000000	      0.00000000	     -3.69605757	    -43.00693192	     14.69723220	     30.53434310	     89.99559364	      0.00000000	      0.00000000
      0.46666667	    -24.02366878	      5.62568970	   -100.05705485	     -0.05917803	      0.97080515	     -1.08256547	     22.64737835	     -6.78049049	    -23.99186182	     46.04088449	      0.80356502	      3.98815035	     16.19124957	      0.00000000	     30.20935552	    -21.01140534	     13.02864478	     53.30996780	      0.93043446	     16.14402961	    -19.54526049	      0.00000000	      0.00364730	     -0.88484886	      1.51274093	      0.00677340	     -1.17684898	      1.60728723	      0.00599214	     -2.15142151	      1.60728723	      0.00416850	     -2.15142151	      1.32364831	      0.00338688	     -1.80438379	      1.22910200	      0.00208407	     -1.37063088	      1.13455569	      0.02605228	    -10.00958725	      8.41341121	      0.00000000	      0.00000000	     -2.24552041	      0.01208392	     -5.67983945	    -29.34974263	    -39.44841924	    -71.75634930	     92.84842810	     89.99559364	      0.00000000	      0.00000000	     -2.17724320	    -42.83454370	     11.68758668	     31.17906377	     89.99559364	      0.00000000	      0.00000000
      0.48333333	    -25.01976915	      5.60984456	    -97.92005390	     -0.05862208	      0.96921446	     -1.07281070	     22.00869999	     -8.13209996	    -25.48277496	     43.23318849	      0.75456149	      2.89477187	     17.01184566	      0.00000000	     30.46067074	    -21.00652834	     15.37124341	     53.35114675	      0.93115317	     16.72491096	    -19.52634410	      0.00000000	      0.00297474	     -0.89773077	      1.36269984	      0.00552438	     -1.19398193	      1.44786858	      0.00488719	     -2.18274260	      1.44786858	      0.00339983	     -2.18274260	      1.19236236	      0.00276234	     -1.83065259	      1.10719362	      0.00169976	     -1.39058497	      1.02202488	      0.02124824	    -10.15531004	      7.57892773	      0.00000000	      0.00000000	     -2.53880939	      0.18692328	    -11.43692925	    -32.42490260	    -39.02545759	    -74.51468066	     92.20055105	     89.99559364	      0.00000000	      0.00000000	     -1.81159823	    -42.02337463	      4.81395562	     32.39407305	     89.99559364	      0.00000000	      0.00000000
